<svg t="1596470663183" class="icon" viewBox="0 0 1025 1024" version="1.1" xmlns="http://www.w3.org/2000/svg" p-id="11921" width="200" height="200"><path d="M991.949658 130.089599c4.427598 0 8.163865 3.738865 8.163865 8.163865L1000.113523 849.609964c0 4.427598-3.736067 8.163865-8.163865 8.163865l-360.82656 0c-4.421003 0-8.163865-3.736267-8.163865-8.163865l0-711.3565c0-4.423601 3.742862-8.163865 8.163865-8.163865L991.949658 130.089599M991.949658 105.597805 631.123099 105.597805c-17.956625 0-32.648864 14.695037-32.648864 32.65546L598.474234 849.609964c0 17.963221 14.692239 32.655659 32.648864 32.655659l360.825161 0c17.956625 0 32.65546-14.692439 32.65546-32.655659L1024.603719 138.253464C1024.605318 120.292841 1009.906284 105.597805 991.949658 105.597805L991.949658 105.597805zM924.165416 373.681844c0 17.540308-2.499705 33.083769-7.479129 46.63658-4.979624 13.555409-11.959891 25.112574-20.928211 34.679287-8.968319 9.566714-19.731622 17.039048-32.289907 22.420199-12.55149 5.382351-26.506029 8.573387-41.849826 9.566514l-2.09418 72.048351c0 2.991772-1.748614 5.238648-5.232053 6.727839-3.490234 1.495786-9.11462 2.240481-16.892747 2.240481-4.18836 0-7.771731-0.146301-10.756707-0.445498-2.991572-0.299197-5.384949-0.797659-7.179932-1.495786-1.794983-0.697927-3.091304-1.642087-3.882568-2.838675-0.797659-1.196589-1.196589-2.592842-1.196589-4.18836l-1.794983-82.811654c-0.199465-4.583293 0.146301-8.319359 1.050288-11.211399 0.890996-2.885244 2.233885-5.278621 4.028669-7.173336s4.088628-3.184441 6.880735-3.885166c2.785511-0.698127 5.976748-1.04769 9.566714-1.04769l6.581538 0c12.950619 0 24.012919-2.041016 33.180703-6.129644 9.167784-4.079234 16.587154-9.51335 22.277896-16.290555 5.677351-6.774407 9.812547-14.748201 12.405389-23.915985 2.579451-9.163787 3.882568-18.730501 3.882568-28.699941 0-11.361697-1.595518-21.772638-4.786755-31.242218-3.191036-9.462984-7.970996-17.637442-14.346673-24.514379-6.382273-6.876738-14.399837-12.205924-24.066283-15.995355-9.673042-3.782835-21.074511-5.677551-34.237787-5.677551-11.554366 0-21.672906 1.247154-30.342028 3.736267-8.669122 2.49311-16.19482 5.232053-22.570297 8.219627-6.375677 2.987574-11.614325 5.680149-15.696158 8.074725-4.088628 2.38938-7.126768 3.585969-9.121216 3.585969-1.396053 0-2.639211-0.299197-3.736267-0.897392-1.096856-0.595596-2.047612-1.741819-2.838675-3.43707-0.797659-1.692652-1.396053-3.984898-1.788387-6.876738-0.405525-2.885244-0.598394-6.525776-0.598394-10.912202 0-4.783956 0.292602-8.416494 0.890996-10.912202 0.598194-2.486314 1.894715-4.680227 3.889163-6.574942 1.987852-1.894715 5.830447-4.38103 11.507798-7.472534s12.564881-5.930179 20.629213-8.522822c8.077523-2.586047 16.939315-4.783956 26.612357-6.574942 9.666446-1.794983 19.678458-2.692574 30.042831-2.692574 21.320545 0 39.656113 3.042137 55.013101 9.117219 15.343797 6.083076 27.995219 14.302703 37.960663 24.664477 9.965443 10.364373 17.338245 22.523929 22.124999 36.47427C921.772039 343.386384 924.165416 358.135984 924.165416 373.681844zM829.689071 638.86465c0 6.574942-0.445498 12.00646-1.349485 16.287957-0.890996 4.294688-2.539678 7.778326-4.932856 10.464105-2.393377 2.692375-5.630982 4.58729-9.712815 5.677351-4.088628 1.097056-9.11462 1.648882-15.097964 1.648882-6.382273 0-11.561162-0.551826-15.543262-1.648882-3.988896-1.090261-7.233096-2.984976-9.71961-5.677351-2.499705-2.685779-4.18836-6.169417-5.079156-10.464105-0.904187-4.281297-1.349485-9.712815-1.349485-16.287957 0-6.581738 0.445498-12.112788 1.349485-16.593749 0.890796-4.487557 2.579451-7.970996 5.079156-10.464105 2.486314-2.486314 5.730715-4.281297 9.71961-5.384949 3.9823-1.090261 9.160989-1.642087 15.543262-1.642087 5.983343 0 11.009336 0.551826 15.097964 1.642087 4.082032 1.103652 7.319437 2.898635 9.712815 5.384949 2.393377 2.49311 4.042059 5.983343 4.932856 10.464105C829.243573 626.751862 829.689071 632.282912 829.689071 638.86465zM208.224424 450.278911c-28.473895 0-55.159402 10.672764-74.162518 28.483088-19.538753 17.806327-31.415101 42.683461-31.415101 70.559161 0 27.8755 11.869552 53.424178 31.415101 71.227907 19.009711 17.74377 45.688623 28.487086 74.162518 28.487086 29.074887 0 55.152806-10.743316 74.169113-28.487086 19.534755-17.803729 32.010697-43.352407 32.010697-71.227907 0-27.882296-12.474542-52.752834-32.010697-70.559161C263.37723 460.951675 237.30051 450.278911 208.224424 450.278911zM249.77905 584.936413c-10.067974 10.071971-24.943688 16.008746-41.553427 16.008746-16.004749 0-30.873868-5.930179-41.550829-16.008746-10.067974-8.935142-16.008746-21.347127-16.008746-35.613854 0-13.675128 5.939373-26.080517 16.008746-35.614054 10.676961-9.466981 25.544681-15.403756 41.550829-15.403756 16.609739 0 31.485453 5.936775 41.553427 15.403756 10.062578 9.533336 16.004749 21.938925 16.004749 35.614054C265.783799 563.589286 259.840428 576.001271 249.77905 584.936413zM599.486148 451.491489 385.031149 451.491489c-13.675128 0-24.345494 10.666168-24.345494 24.274942 0 13.066141 10.670166 24.345494 24.345494 24.345494l205.227456 0c-2.938408 7.140159-5.345176 14.805362-7.671799 21.938726l-197.555457 0c-13.675128 0-24.345494 11.281951-24.345494 24.338698 0 13.615369 10.670166 24.278939 24.345494 24.278939l186.885292 0 0 0.611585 0 0.591599 0 0.598394 0 0.598194-0.60499 0.598394 0 0.598194 0 0.598394 0 0.598194 0 0.538635 0 0.598194 0 0.598394 0 0.598194 0 0.598394-0.591599 0 0 0.598194 0 0.598394 0 0.598194 0 0.598394 0 0.598194 0 0.598394 0 0.538435 0 0.60499 0 0.591599-0.60499 0.598194 0 0.60499 0 0.591599 0 0.60499 0 0.591599 0 0.60499 0 2.326822 0 0.60499 0 0.591599-0.598394 0.60499 0 1.735224-184.485319 0c-13.675128 0-24.345494 10.730125-24.345494 23.747099 0 13.661937 10.670166 24.338698 24.345494 24.338698l185.083713 0c1.794983 18.408719 4.733391 36.744088 9.466981 54.015977l0 0.013191-198.749648 0.0004L154.261611 695.293191 134.057909 695.293191c-23.747099 0-45.087631-9.539932-60.491187-24.943688-0.598394-0.598194-0.598394-1.203384-1.203384-1.203384-14.871917-15.403556-24.345494-36.744088-24.345494-59.287803l0-126.387309c0-23.743102 10.071971-45.083633 25.544681-61.09218 0.60499 0 0.60499-0.600993 1.203384-0.600993 15.403756-15.399759 36.141896-24.341496 59.288003-24.341496l35.616652 0 0.595596 0 65.231373 0 363.987017 0 0-48.022041L259.246031 349.414297l0-86.640857c0-12.474542 5.932778-24.345494 15.403756-32.611689 10.145122-9.540132 24.345494-14.874515 40.35404-14.874515l284.482321 0L599.486148 166.6674l-284.482321 0c-27.882296 0-53.958816 10.670166-72.367535 27.277306-19.607906 17.806327-31.478857 42.149023-31.478857 68.830533l0 86.640857-17.141578 0 0-123.375751c0-19.607906 7.665203-36.817238 19.541551-49.890174 0.598394 0 1.199387-0.602392 1.199387-1.199387 13.010379-12.999786 31.418898-20.742137 51.024206-20.742137l333.704948 0L599.485949 105.588611l-333.708945 0c-33.214081 0-62.887163 13.608773-84.836681 35.616652-0.594397 0.531839-1.192591 0.531839-1.192591 1.130234C158.404602 164.283416 145.330466 193.957897 145.330466 226.041744l0 123.385145-11.271158 0c-36.212248 0-68.830533 14.20297-93.109472 37.947472-0.598394 0-1.200586 0.598394-1.79898 1.196589C14.809359 412.849888 0 446.668958 0 483.475604l0 126.393905c0 35.540903 14.811957 68.76158 37.95007 93.100278 0.600993 0.60499 1.203384 0.60499 1.203384 1.203384l17.205335-17.205335-16.609739 17.205335c23.144708 23.740304 55.159402 38.552461 90.171064 39.74905l0 59.899588c0 26.738671 12.474542 51.01761 33.220676 68.222945 19.002916 16.613736 45.681828 26.685507 74.155722 26.685507l60.497783 0c28.476493 0 55.159402-10.071971 74.15972-26.685507 20.748732-17.205335 33.216679-41.484274 33.216679-68.222945l0-59.899588 191.614685 0c0.877605 1.994448 1.781792 3.962314 2.69917 5.930179L599.484549 451.491489 599.486148 451.491489zM357.155449 803.831003c0 11.866954-5.939373 23.135514-16.077899 31.472262-11.198008 9.466981-26.069925 15.410352-43.281855 15.410352l-60.493985 0c-16.60694 0-32.073254-5.94337-43.285852-15.410352-9.529339-8.330152-16.071104-19.605308-16.071104-31.472262l0-59.899588 179.213293 0 0 59.899588L357.155449 803.831003zM640.197746 105.597805l-103.856785 0 0 23.989135 55.332285 0 0 5.327788 10.430928 0 0-5.327788 38.093772 0L640.197946 105.597805z" p-id="11922" fill="#ffffff"></path></svg>